<?xml version="1.0" standalone="no"?>
<!DOCTYPE svg PUBLIC "-//W3C//DTD SVG 20010904//EN"
 "http://www.w3.org/TR/2001/REC-SVG-20010904/DTD/svg10.dtd">
<svg version="1.0" xmlns="http://www.w3.org/2000/svg"
 width="1510.000000pt" height="304.000000pt" viewBox="0 0 1510.000000 304.000000"
 preserveAspectRatio="xMidYMid meet">

<g transform="translate(0.000000,304.000000) scale(0.100000,-0.100000)"
fill="#000000" stroke="none">
<path d="M14247 2597 c-116 -86 -350 -324 -430 -437 -85 -120 -189 -328 -222
-445 -143 -500 92 -949 544 -1040 117 -24 327 -17 426 15 126 40 202 87 301
185 75 74 98 105 132 175 52 108 72 191 72 306 0 176 -55 316 -173 441 -121
127 -267 186 -464 187 l-113 0 16 25 c58 91 223 271 358 390 58 52 103 98 99
102 -5 3 -111 40 -236 82 l-228 76 -82 -62z m194 -1003 c61 -30 95 -73 115
-141 38 -129 -20 -277 -130 -336 -32 -17 -58 -22 -116 -22 -86 0 -120 15 -180
76 -94 97 -93 283 3 387 66 72 205 88 308 36z"/>
<path d="M10609 2635 c-65 -13 -210 -59 -281 -89 l-38 -16 0 -184 0 -183 98
48 c117 59 191 79 293 79 64 0 85 -4 129 -27 75 -40 113 -96 118 -177 3 -49 0
-71 -16 -103 -47 -92 -143 -143 -269 -143 l-63 0 0 -154 0 -153 78 -6 c160
-12 265 -80 297 -192 19 -63 14 -107 -15 -165 -53 -103 -193 -151 -352 -121
-78 15 -204 75 -286 135 l-62 46 0 -219 0 -219 88 -32 c198 -72 389 -105 565
-97 206 8 341 61 463 182 80 79 117 145 139 250 36 172 3 336 -93 453 -30 37
-124 115 -171 142 -14 8 -13 11 9 26 14 9 53 46 87 81 74 75 126 176 143 276
33 187 -97 405 -301 506 -46 23 -115 48 -154 56 -87 18 -315 18 -406 0z"/>
<path d="M12412 2630 c-120 -32 -206 -83 -304 -181 -76 -76 -93 -100 -142
-200 -33 -67 -66 -154 -80 -210 -77 -301 -55 -674 53 -928 95 -222 279 -386
491 -435 86 -21 256 -20 339 0 215 52 398 213 492 435 138 324 127 834 -24
1134 -101 202 -258 335 -453 385 -103 27 -270 26 -372 0z m272 -410 c71 -43
103 -157 114 -412 4 -86 4 -230 1 -320 -14 -325 -60 -418 -206 -418 -90 0
-140 51 -167 170 -37 163 -43 593 -11 767 18 95 50 167 92 203 29 26 42 30 90
30 38 0 66 -6 87 -20z"/>
<path d="M871 2613 c-14 -28 -851 -1922 -851 -1928 0 -3 134 -5 298 -5 l297 0
81 198 80 197 425 0 424 0 79 -197 80 -198 299 0 c192 0 297 4 295 10 -1 5
-194 444 -428 975 l-425 965 -322 0 c-297 0 -323 -1 -332 -17z m479 -848 c73
-181 134 -336 137 -342 4 -10 -56 -13 -281 -13 -167 0 -286 4 -286 9 0 5 59
155 131 333 72 178 136 334 141 348 8 20 11 22 18 10 4 -8 68 -163 140 -345z"/>
<path d="M3013 2130 c-143 -15 -279 -74 -366 -158 -21 -20 -55 -71 -75 -111
-34 -68 -37 -82 -36 -155 0 -59 7 -97 23 -138 42 -108 168 -217 331 -288 124
-54 223 -106 253 -133 20 -20 27 -35 27 -64 -1 -75 -53 -103 -188 -103 -114 0
-177 17 -312 85 l-110 55 0 -178 0 -179 120 -37 c66 -21 155 -44 198 -52 103
-18 338 -18 426 1 260 55 409 256 368 497 -30 174 -138 272 -431 393 -167 68
-200 94 -200 150 -1 32 22 67 54 83 85 42 276 8 425 -76 36 -20 68 -38 73 -40
4 -2 7 75 7 171 l0 174 -67 26 c-102 40 -213 66 -332 77 -58 5 -108 9 -111 9
-3 -1 -38 -5 -77 -9z"/>
<path d="M4778 2130 c-96 -12 -154 -33 -239 -89 l-74 -49 -3 59 -3 59 -254 0
-255 0 0 -1040 0 -1040 255 0 255 0 0 365 0 365 70 -35 c102 -51 166 -65 306
-65 214 0 343 49 475 180 141 141 210 326 210 565 0 257 -63 420 -216 564
-132 123 -332 184 -527 161z m64 -407 c108 -60 152 -167 146 -352 -3 -102 -7
-124 -32 -178 -33 -73 -103 -144 -160 -163 -24 -7 -67 -11 -111 -8 -58 4 -87
12 -148 43 l-77 39 0 277 0 278 33 24 c110 83 244 98 349 40z"/>
<path d="M6430 2129 c-168 -14 -323 -70 -445 -162 -299 -225 -342 -743 -88
-1054 76 -93 210 -174 360 -219 75 -22 113 -27 255 -31 256 -8 391 14 606 99
l102 41 0 157 0 158 -93 -39 c-51 -21 -138 -50 -193 -65 -86 -24 -118 -28
-249 -28 -148 -1 -151 -1 -215 30 -106 51 -186 137 -215 231 l-6 23 503 2 503
3 3 45 c6 73 -17 264 -39 337 -35 115 -86 201 -169 283 -149 150 -351 211
-620 189z m221 -335 c76 -42 129 -138 129 -236 l0 -38 -272 2 -273 3 3 45 c7
87 70 187 144 226 78 41 191 40 269 -2z"/>
<path d="M8428 2129 c-137 -15 -237 -62 -355 -166 l-63 -55 0 101 0 101 -250
0 -250 0 0 -715 0 -715 250 0 250 0 0 421 0 421 45 58 c97 126 192 180 294
166 100 -14 148 -65 171 -185 6 -31 10 -229 10 -467 l0 -414 250 0 251 0 -3
518 c-4 560 -4 561 -63 690 -30 65 -110 150 -172 184 -95 52 -231 73 -365 57z"/>
</g>
</svg>
