<?xml version="1.0" standalone="no"?>
<!DOCTYPE svg PUBLIC "-//W3C//DTD SVG 20010904//EN"
 "http://www.w3.org/TR/2001/REC-SVG-20010904/DTD/svg10.dtd">
<svg version="1.0" xmlns="http://www.w3.org/2000/svg"
 width="800.000000pt" height="185.000000pt" viewBox="0 0 800.000000 185.000000"
 preserveAspectRatio="xMidYMid meet">

<g transform="translate(0.000000,185.000000) scale(0.100000,-0.100000)"
fill="#000000" stroke="none">
<path d="M7669 1791 c-82 -27 -124 -92 -117 -183 8 -113 95 -176 213 -154 47
9 99 56 120 108 30 76 -1 169 -71 210 -36 21 -108 31 -145 19z"/>
<path d="M42 1772 c-10 -7 -12 -182 -10 -846 l3 -838 205 1 c113 0 208 1 213
1 4 0 7 164 7 364 l0 363 40 50 c39 50 107 110 146 131 40 21 117 25 159 8 50
-21 72 -41 99 -91 20 -39 21 -54 24 -425 2 -265 7 -388 14 -398 9 -10 52 -13
202 -11 105 1 197 4 204 7 15 5 17 711 2 866 -25 258 -174 386 -449 386 -136
0 -248 -43 -369 -140 -47 -38 -62 -45 -66 -33 -3 8 -6 144 -6 302 0 210 -3
290 -12 299 -14 14 -384 17 -406 4z"/>
<path d="M4046 1768 c-3 -7 -7 -123 -10 -257 -3 -134 -8 -246 -10 -249 -3 -3
-36 9 -73 26 -91 42 -140 51 -258 52 -122 0 -206 -19 -297 -67 -173 -91 -275
-263 -298 -504 -24 -254 48 -454 210 -586 111 -89 256 -132 410 -119 85 6 159
32 243 83 31 20 60 33 63 30 3 -3 8 -24 11 -46 3 -23 8 -41 12 -41 113 -3 404
0 408 4 3 3 8 377 11 830 4 656 2 829 -8 841 -10 12 -46 15 -212 15 -150 0
-200 -3 -202 -12z m-99 -767 l80 -39 5 -244 c6 -278 11 -260 -85 -308 -50 -25
-72 -30 -132 -30 -87 0 -131 16 -181 67 -66 67 -79 110 -78 253 0 92 5 137 17
168 41 106 131 172 238 172 44 0 71 -8 136 -39z"/>
<path d="M7080 1331 c-96 -31 -178 -103 -258 -226 -28 -44 -52 -78 -53 -75 -1
3 -4 68 -8 145 l-6 140 -205 0 -205 0 0 -615 0 -615 205 0 205 0 5 275 5 275
43 82 c53 100 129 176 193 193 66 18 143 7 201 -29 27 -17 55 -31 63 -31 13 0
155 368 155 401 0 10 -27 28 -72 50 -62 28 -86 33 -158 36 -47 1 -96 -1 -110
-6z"/>
<path d="M1555 1310 c-8 -13 -8 -13 115 -170 146 -186 340 -443 340 -451 0 -8
-72 -103 -277 -364 -95 -120 -172 -224 -170 -230 4 -10 403 -17 437 -8 8 3 44
48 80 100 36 53 89 130 119 171 l54 74 18 -23 c11 -13 63 -86 116 -163 54 -76
107 -145 119 -152 27 -18 495 -16 501 2 3 10 -58 94 -376 512 -88 116 -92 124
-78 145 8 12 107 139 221 281 113 143 206 265 206 273 0 18 -433 19 -451 1 -6
-7 -59 -80 -117 -163 -59 -82 -111 -150 -117 -149 -5 0 -54 63 -108 140 -53
76 -106 149 -116 162 -19 22 -23 22 -265 22 -152 0 -247 -4 -251 -10z"/>
<path d="M4677 1313 c-4 -3 -7 -9 -7 -13 0 -4 99 -135 221 -291 121 -156 225
-294 231 -306 9 -19 -8 -45 -159 -235 -231 -291 -286 -365 -278 -378 4 -6 82
-10 219 -10 244 0 217 -10 296 110 24 36 72 104 108 153 l64 87 38 -47 c20
-27 74 -102 119 -168 45 -66 90 -123 99 -126 31 -12 490 -11 497 1 9 14 0 28
-178 259 -244 318 -273 355 -281 369 -10 16 21 59 248 345 100 125 181 233
181 240 0 18 -424 23 -446 5 -9 -7 -60 -78 -114 -157 -54 -78 -105 -145 -112
-148 -20 -8 -32 6 -133 152 -51 75 -102 143 -114 150 -16 12 -66 15 -257 15
-129 0 -239 -3 -242 -7z"/>
<path d="M7512 704 l3 -616 203 0 c112 0 205 2 207 4 3 2 5 278 6 614 l1 609
-211 3 -211 2 2 -616z"/>
</g>
</svg>
