<?xml version="1.0" encoding="UTF-8"?>
<!DOCTYPE svg PUBLIC "-//W3C//DTD SVG 1.1//EN" "http://www.w3.org/Graphics/SVG/1.1/DTD/svg11.dtd">
<svg xmlns="http://www.w3.org/2000/svg" version="1.1" width="348px" height="348px" style="shape-rendering:geometricPrecision; text-rendering:geometricPrecision; image-rendering:optimizeQuality; fill-rule:evenodd; clip-rule:evenodd" xmlns:xlink="http://www.w3.org/1999/xlink">
<g><path style="opacity:0.458" fill="#b1b1b1" d="M 188.5,55.5 C 177.503,54.1967 166.503,54.1967 155.5,55.5C 160.939,53.9979 166.606,52.9979 172.5,52.5C 178.104,52.8478 183.437,53.8478 188.5,55.5 Z"/></g>
<g><path style="opacity:0.986" fill="#0d0d0d" d="M 188.5,55.5 C 192.479,55.7424 196.146,56.7424 199.5,58.5C 200.78,59.9313 202.447,60.5979 204.5,60.5C 207.669,61.9166 210.669,63.5832 213.5,65.5C 213.973,66.9063 214.973,67.573 216.5,67.5C 216.973,68.9063 217.973,69.573 219.5,69.5C 226.546,74.2126 232.213,80.2126 236.5,87.5C 236.427,89.0269 237.094,90.0269 238.5,90.5C 239.338,90.8417 239.672,91.5084 239.5,92.5C 239.427,94.0269 240.094,95.0269 241.5,95.5C 242.751,97.3819 243.918,99.3819 245,101.5C 245.49,102.793 245.657,104.127 245.5,105.5C 245.259,107.898 245.926,109.898 247.5,111.5C 249.002,116.939 250.002,122.606 250.5,128.5C 249.832,134.18 249.166,139.847 248.5,145.5C 246.926,147.102 246.259,149.102 246.5,151.5C 244.258,156.33 242.258,161.33 240.5,166.5C 238.75,167.659 237.75,169.326 237.5,171.5C 236.094,171.973 235.427,172.973 235.5,174.5C 235.5,175.167 235.167,175.5 234.5,175.5C 233.094,175.973 232.427,176.973 232.5,178.5C 232.5,179.167 232.167,179.5 231.5,179.5C 228.5,181.833 225.833,184.5 223.5,187.5C 222.833,188.833 221.833,189.833 220.5,190.5C 218.616,190.712 217.283,191.712 216.5,193.5C 219.395,195.115 222.395,196.448 225.5,197.5C 226.659,199.25 228.326,200.25 230.5,200.5C 232.23,201.026 233.564,202.026 234.5,203.5C 234.973,204.906 235.973,205.573 237.5,205.5C 240.784,207.117 243.451,209.45 245.5,212.5C 245.833,213.5 246.5,214.167 247.5,214.5C 249.833,217.5 252.5,220.167 255.5,222.5C 257.727,224.607 259.727,226.94 261.5,229.5C 261.427,231.027 262.094,232.027 263.5,232.5C 263.738,234.404 264.738,235.738 266.5,236.5C 268.267,238.938 269.601,241.605 270.5,244.5C 270.427,246.027 271.094,247.027 272.5,247.5C 275.485,252.453 277.485,257.786 278.5,263.5C 278.42,266.781 279.087,269.781 280.5,272.5C 281.302,273.952 281.802,275.618 282,277.5C 282.499,282.823 282.666,288.156 282.5,293.5C 275.315,293.902 267.982,293.902 260.5,293.5C 259.5,286.835 258.5,280.168 257.5,273.5C 257.59,270.848 256.924,268.515 255.5,266.5C 252.872,260.568 250.205,254.568 247.5,248.5C 247.573,246.973 246.906,245.973 245.5,245.5C 245.573,243.973 244.906,242.973 243.5,242.5C 240.484,239.48 237.817,236.146 235.5,232.5C 235.167,231.5 234.5,230.833 233.5,230.5C 232.833,230.5 232.5,230.167 232.5,229.5C 232.027,228.094 231.027,227.427 229.5,227.5C 228.833,227.5 228.5,227.167 228.5,226.5C 227.738,224.738 226.404,223.738 224.5,223.5C 223.833,223.5 223.5,223.167 223.5,222.5C 223.027,221.094 222.027,220.427 220.5,220.5C 198.393,207.304 174.726,203.804 149.5,210C 145.812,211.513 142.145,213.013 138.5,214.5C 136.447,214.402 134.78,215.069 133.5,216.5C 131.178,218.664 128.511,220.331 125.5,221.5C 123.973,221.427 122.973,222.094 122.5,223.5C 122.5,224.167 122.167,224.5 121.5,224.5C 119.973,224.427 118.973,225.094 118.5,226.5C 118.167,227.5 117.5,228.167 116.5,228.5C 113.167,229.833 110.833,232.167 109.5,235.5C 108.5,237.167 107.167,238.5 105.5,239.5C 104.094,239.973 103.427,240.973 103.5,242.5C 102.094,242.973 101.427,243.973 101.5,245.5C 100.094,245.973 99.427,246.973 99.5,248.5C 98.0713,251.696 96.4046,254.696 94.5,257.5C 92.1939,261.085 90.8606,265.085 90.5,269.5C 90.1417,272.689 89.475,275.689 88.5,278.5C 86.9462,282.567 86.2796,286.9 86.5,291.5C 83.7385,293.167 80.5719,294.167 77,294.5C 72.9341,293.536 68.7675,293.203 64.5,293.5C 63.6322,290.269 63.6322,286.935 64.5,283.5C 66.0114,280.456 66.678,277.122 66.5,273.5C 68.6343,266.643 70.6343,259.643 72.5,252.5C 72.3284,251.508 72.6618,250.842 73.5,250.5C 74.6737,249.486 75.3404,248.153 75.5,246.5C 77.341,244.151 78.6743,241.485 79.5,238.5C 80.9063,238.027 81.573,237.027 81.5,235.5C 83.3264,233.853 84.6597,231.853 85.5,229.5C 87.5869,228.415 88.9202,226.749 89.5,224.5C 94.5,220.167 99.1667,215.5 103.5,210.5C 103.5,209.833 103.833,209.5 104.5,209.5C 108.051,207.889 111.051,205.556 113.5,202.5C 113.842,201.662 114.508,201.328 115.5,201.5C 117.404,201.262 118.738,200.262 119.5,198.5C 119.842,197.662 120.508,197.328 121.5,197.5C 124.757,196.538 127.757,195.038 130.5,193C 128.886,190.873 126.886,189.373 124.5,188.5C 121.167,185.833 118.167,182.833 115.5,179.5C 115.262,177.596 114.262,176.262 112.5,175.5C 110.674,173.853 109.34,171.853 108.5,169.5C 108.573,167.973 107.906,166.973 106.5,166.5C 104.408,163.912 103.075,160.912 102.5,157.5C 102.472,154.084 101.472,151.084 99.5,148.5C 96.1042,138.151 95.7709,127.818 98.5,117.5C 99.6572,114.727 100.324,111.727 100.5,108.5C 101.704,103.105 103.704,98.1046 106.5,93.5C 107.906,93.0269 108.573,92.0269 108.5,90.5C 108.328,89.5084 108.662,88.8417 109.5,88.5C 111.262,87.7377 112.262,86.4044 112.5,84.5C 112.5,83.8333 112.833,83.5 113.5,83.5C 114.906,83.0269 115.573,82.0269 115.5,80.5C 119.859,76.4718 124.193,72.4718 128.5,68.5C 130.853,67.6597 132.853,66.3264 134.5,64.5C 134.842,63.6618 135.508,63.3284 136.5,63.5C 139.545,62.7206 142.211,61.3873 144.5,59.5C 145.78,58.0687 147.447,57.4021 149.5,57.5C 151.898,57.7406 153.898,57.0739 155.5,55.5C 166.503,54.1967 177.503,54.1967 188.5,55.5 Z M 179.5,76.5 C 179.833,76.5 180.167,76.5 180.5,76.5C 183.273,77.6572 186.273,78.3239 189.5,78.5C 192.678,80.0086 196.011,81.342 199.5,82.5C 199.973,83.9063 200.973,84.573 202.5,84.5C 202.973,85.9063 203.973,86.573 205.5,86.5C 206.167,87.8333 207.167,88.8333 208.5,89.5C 210.167,91.8333 212.167,93.8333 214.5,95.5C 215.124,97.754 216.457,99.4206 218.5,100.5C 218.328,101.492 218.662,102.158 219.5,102.5C 220.326,105.485 221.659,108.151 223.5,110.5C 223.263,111.791 223.596,112.791 224.5,113.5C 224.858,116.689 225.525,119.689 226.5,122.5C 226.593,128.863 226.26,135.196 225.5,141.5C 225.5,142.167 225.5,142.833 225.5,143.5C 223.928,146.215 222.928,149.215 222.5,152.5C 220,155.494 218,158.827 216.5,162.5C 212.833,165.5 209.5,168.833 206.5,172.5C 201.592,175.452 196.592,178.119 191.5,180.5C 188.848,180.41 186.515,181.076 184.5,182.5C 178.336,183.103 172.336,183.436 166.5,183.5C 162.702,182.132 158.702,181.132 154.5,180.5C 154.158,179.662 153.492,179.328 152.5,179.5C 150.819,177.992 148.819,176.992 146.5,176.5C 145.341,174.75 143.674,173.75 141.5,173.5C 141.167,172.5 140.5,171.833 139.5,171.5C 137.5,168.833 135.167,166.5 132.5,164.5C 132.167,163.5 131.5,162.833 130.5,162.5C 130.573,160.973 129.906,159.973 128.5,159.5C 124.63,152.88 121.963,145.88 120.5,138.5C 120.403,130.809 120.737,123.142 121.5,115.5C 123.147,111.576 124.814,107.576 126.5,103.5C 127.906,103.027 128.573,102.027 128.5,100.5C 129.803,98.8577 131.136,97.1911 132.5,95.5C 134.833,93.8333 136.833,91.8333 138.5,89.5C 139.5,89.1667 140.167,88.5 140.5,87.5C 142.027,87.573 143.027,86.9063 143.5,85.5C 148.349,82.9097 153.349,80.5764 158.5,78.5C 165.41,77.0074 172.41,76.3407 179.5,76.5 Z"/></g>
<g><path style="opacity:0.459" fill="#959595" d="M 155.5,55.5 C 153.898,57.0739 151.898,57.7406 149.5,57.5C 151.214,56.2616 153.214,55.595 155.5,55.5 Z"/></g>
<g><path style="opacity:0.32" fill="#aeaeae" d="M 199.5,58.5 C 201.553,58.4021 203.22,59.0687 204.5,60.5C 202.447,60.5979 200.78,59.9313 199.5,58.5 Z"/></g>
<g><path style="opacity:0.231" fill="#c5c5c5" d="M 144.5,59.5 C 142.211,61.3873 139.545,62.7206 136.5,63.5C 138.612,61.2295 141.279,59.8961 144.5,59.5 Z"/></g>
<g><path style="opacity:0.235" fill="#cfcfcf" d="M 134.5,64.5 C 132.853,66.3264 130.853,67.6597 128.5,68.5C 129.802,66.1782 131.802,64.8449 134.5,64.5 Z"/></g>
<g><path style="opacity:0.149" fill="#888888" d="M 213.5,65.5 C 215.027,65.427 216.027,66.0937 216.5,67.5C 214.973,67.573 213.973,66.9063 213.5,65.5 Z"/></g>
<g><path style="opacity:0.024" fill="#c5c5c5" d="M 216.5,67.5 C 218.027,67.427 219.027,68.0937 219.5,69.5C 217.973,69.573 216.973,68.9063 216.5,67.5 Z"/></g>
<g><path style="opacity:0.337" fill="#c0c0c0" d="M 128.5,68.5 C 124.193,72.4718 119.859,76.4718 115.5,80.5C 118.554,75.1129 122.887,71.1129 128.5,68.5 Z"/></g>
<g><path style="opacity:0.208" fill="#b1b1b1" d="M 179.5,76.5 C 172.41,76.3407 165.41,77.0074 158.5,78.5C 160.476,76.9891 162.809,76.1558 165.5,76C 170.352,75.1849 175.019,75.3516 179.5,76.5 Z"/></g>
<g><path style="opacity:0.2" fill="#b8b8b8" d="M 180.5,76.5 C 183.829,76.2153 186.829,76.8819 189.5,78.5C 186.273,78.3239 183.273,77.6572 180.5,76.5 Z"/></g>
<g><path style="opacity:0.439" fill="#a9a9a9" d="M 115.5,80.5 C 115.573,82.0269 114.906,83.0269 113.5,83.5C 113.427,81.9731 114.094,80.9731 115.5,80.5 Z"/></g>
<g><path style="opacity:0.545" fill="#878787" d="M 199.5,82.5 C 201.027,82.427 202.027,83.0937 202.5,84.5C 200.973,84.573 199.973,83.9063 199.5,82.5 Z"/></g>
<g><path style="opacity:0.494" fill="#8d8d8d" d="M 202.5,84.5 C 204.027,84.427 205.027,85.0937 205.5,86.5C 203.973,86.573 202.973,85.9063 202.5,84.5 Z"/></g>
<g><path style="opacity:0.408" fill="#9f9f9f" d="M 112.5,84.5 C 112.262,86.4044 111.262,87.7377 109.5,88.5C 109.738,86.5956 110.738,85.2623 112.5,84.5 Z"/></g>
<g><path style="opacity:0.016" fill="#dddddd" d="M 143.5,85.5 C 143.027,86.9063 142.027,87.573 140.5,87.5C 140.973,86.0937 141.973,85.427 143.5,85.5 Z"/></g>
<g><path style="opacity:0.573" fill="#b6b6b6" d="M 208.5,89.5 C 211.5,90.5 213.5,92.5 214.5,95.5C 212.167,93.8333 210.167,91.8333 208.5,89.5 Z"/></g>
<g><path style="opacity:0.216" fill="#909090" d="M 236.5,87.5 C 237.906,87.9731 238.573,88.9731 238.5,90.5C 237.094,90.0269 236.427,89.0269 236.5,87.5 Z"/></g>
<g><path style="opacity:0.427" fill="#ababab" d="M 108.5,90.5 C 108.573,92.0269 107.906,93.0269 106.5,93.5C 106.427,91.9731 107.094,90.9731 108.5,90.5 Z"/></g>
<g><path style="opacity:0.086" fill="#c9c9c9" d="M 138.5,89.5 C 136.833,91.8333 134.833,93.8333 132.5,95.5C 133.5,92.5 135.5,90.5 138.5,89.5 Z"/></g>
<g><path style="opacity:0.204" fill="#a9a9a9" d="M 239.5,92.5 C 240.906,92.9731 241.573,93.9731 241.5,95.5C 240.094,95.0269 239.427,94.0269 239.5,92.5 Z"/></g>
<g><path style="opacity:0.047" fill="#b4b4b4" d="M 214.5,95.5 C 216.531,96.5387 217.864,98.2054 218.5,100.5C 216.457,99.4206 215.124,97.754 214.5,95.5 Z"/></g>
<g><path style="opacity:0.125" fill="#c0c0c0" d="M 128.5,100.5 C 128.573,102.027 127.906,103.027 126.5,103.5C 126.427,101.973 127.094,100.973 128.5,100.5 Z"/></g>
<g><path style="opacity:0.224" fill="#d4d4d4" d="M 219.5,102.5 C 221.873,104.579 223.206,107.246 223.5,110.5C 221.659,108.151 220.326,105.485 219.5,102.5 Z"/></g>
<g><path style="opacity:0.537" fill="#858585" d="M 245.5,105.5 C 246.738,107.214 247.405,109.214 247.5,111.5C 245.926,109.898 245.259,107.898 245.5,105.5 Z"/></g>
<g><path style="opacity:0.631" fill="#8d8d8d" d="M 100.5,108.5 C 100.324,111.727 99.6572,114.727 98.5,117.5C 98.2153,114.171 98.8819,111.171 100.5,108.5 Z"/></g>
<g><path style="opacity:0.184" fill="#cfcfcf" d="M 224.5,113.5 C 226.265,116.123 226.932,119.123 226.5,122.5C 225.525,119.689 224.858,116.689 224.5,113.5 Z"/></g>
<g><path style="opacity:0.489" fill="#c8c8c8" d="M 226.5,122.5 C 227.652,127.985 227.818,133.651 227,139.5C 226.722,140.416 226.222,141.082 225.5,141.5C 226.26,135.196 226.593,128.863 226.5,122.5 Z"/></g>
<g><path style="opacity:0.192" fill="#b0b0b0" d="M 121.5,115.5 C 120.737,123.142 120.403,130.809 120.5,138.5C 119.835,135.518 119.502,132.352 119.5,129C 119.308,124.228 119.975,119.728 121.5,115.5 Z"/></g>
<g><path style="opacity:0.598" fill="#b2b2b2" d="M 225.5,143.5 C 225.472,146.916 224.472,149.916 222.5,152.5C 222.928,149.215 223.928,146.215 225.5,143.5 Z"/></g>
<g><path style="opacity:0.38" fill="#b2b2b2" d="M 248.5,145.5 C 248.405,147.786 247.738,149.786 246.5,151.5C 246.259,149.102 246.926,147.102 248.5,145.5 Z"/></g>
<g><path style="opacity:0.651" fill="#a3a3a3" d="M 99.5,148.5 C 101.472,151.084 102.472,154.084 102.5,157.5C 100.928,154.785 99.9281,151.785 99.5,148.5 Z"/></g>
<g><path style="opacity:0.243" fill="#c6c6c6" d="M 222.5,152.5 C 221.502,156.505 219.502,159.839 216.5,162.5C 218,158.827 220,155.494 222.5,152.5 Z"/></g>
<g><path style="opacity:0.227" fill="#8b8b8b" d="M 128.5,159.5 C 129.906,159.973 130.573,160.973 130.5,162.5C 129.094,162.027 128.427,161.027 128.5,159.5 Z"/></g>
<g><path style="opacity:0.445" fill="#ababab" d="M 246.5,151.5 C 245.859,157.106 243.859,162.106 240.5,166.5C 242.258,161.33 244.258,156.33 246.5,151.5 Z"/></g>
<g><path style="opacity:0.557" fill="#989898" d="M 216.5,162.5 C 214.167,166.833 210.833,170.167 206.5,172.5C 209.5,168.833 212.833,165.5 216.5,162.5 Z"/></g>
<g><path style="opacity:0.318" fill="#aeaeae" d="M 132.5,164.5 C 135.167,166.5 137.5,168.833 139.5,171.5C 136.167,170.167 133.833,167.833 132.5,164.5 Z"/></g>
<g><path style="opacity:0.047" fill="#cacaca" d="M 106.5,166.5 C 107.906,166.973 108.573,167.973 108.5,169.5C 107.094,169.027 106.427,168.027 106.5,166.5 Z"/></g>
<g><path style="opacity:0.047" fill="#cbcbcb" d="M 240.5,166.5 C 240.25,168.674 239.25,170.341 237.5,171.5C 237.75,169.326 238.75,167.659 240.5,166.5 Z"/></g>
<g><path style="opacity:0.11" fill="#c3c3c3" d="M 237.5,171.5 C 237.573,173.027 236.906,174.027 235.5,174.5C 235.427,172.973 236.094,171.973 237.5,171.5 Z"/></g>
<g><path style="opacity:0.278" fill="#959595" d="M 141.5,173.5 C 143.674,173.75 145.341,174.75 146.5,176.5C 144.326,176.25 142.659,175.25 141.5,173.5 Z"/></g>
<g><path style="opacity:0.008" fill="#cccccc" d="M 112.5,175.5 C 114.262,176.262 115.262,177.596 115.5,179.5C 113.738,178.738 112.738,177.404 112.5,175.5 Z"/></g>
<g><path style="opacity:0.118" fill="#c2c2c2" d="M 234.5,175.5 C 234.573,177.027 233.906,178.027 232.5,178.5C 232.427,176.973 233.094,175.973 234.5,175.5 Z"/></g>
<g><path style="opacity:0.184" fill="#a2a2a2" d="M 146.5,176.5 C 148.819,176.992 150.819,177.992 152.5,179.5C 149.911,179.539 147.911,178.539 146.5,176.5 Z"/></g>
<g><path style="opacity:0.016" fill="#bebebe" d="M 154.5,180.5 C 158.702,181.132 162.702,182.132 166.5,183.5C 162.098,183.692 158.098,182.692 154.5,180.5 Z"/></g>
<g><path style="opacity:0.125" fill="#e5e5e5" d="M 191.5,180.5 C 189.485,181.924 187.152,182.59 184.5,182.5C 186.515,181.076 188.848,180.41 191.5,180.5 Z"/></g>
<g><path style="opacity:0.401" fill="#b6b6b6" d="M 184.5,182.5 C 178.566,184.495 172.566,184.829 166.5,183.5C 172.336,183.436 178.336,183.103 184.5,182.5 Z"/></g>
<g><path style="opacity:0.149" fill="#c3c3c3" d="M 231.5,179.5 C 229.833,183.167 227.167,185.833 223.5,187.5C 225.833,184.5 228.5,181.833 231.5,179.5 Z"/></g>
<g><path style="opacity:0.275" fill="#cbcbcb" d="M 220.5,190.5 C 219.697,191.423 219.53,192.423 220,193.5C 222.167,194.488 224,195.821 225.5,197.5C 222.395,196.448 219.395,195.115 216.5,193.5C 217.283,191.712 218.616,190.712 220.5,190.5 Z"/></g>
<g><path style="opacity:0.241" fill="#d1d1d1" d="M 124.5,188.5 C 126.886,189.373 128.886,190.873 130.5,193C 127.757,195.038 124.757,196.538 121.5,197.5C 123.658,195.907 125.658,194.074 127.5,192C 126.29,190.961 125.29,189.794 124.5,188.5 Z"/></g>
<g><path style="opacity:0.247" fill="#b9b9b9" d="M 225.5,197.5 C 227.674,197.75 229.341,198.75 230.5,200.5C 228.326,200.25 226.659,199.25 225.5,197.5 Z"/></g>
<g><path style="opacity:0.478" fill="#9c9c9c" d="M 119.5,198.5 C 118.738,200.262 117.404,201.262 115.5,201.5C 116.262,199.738 117.596,198.738 119.5,198.5 Z"/></g>
<g><path style="opacity:0.031" fill="#c6c6c6" d="M 234.5,203.5 C 236.027,203.427 237.027,204.094 237.5,205.5C 235.973,205.573 234.973,204.906 234.5,203.5 Z"/></g>
<g><path style="opacity:0.373" fill="#9d9d9d" d="M 113.5,202.5 C 111.051,205.556 108.051,207.889 104.5,209.5C 106.949,206.444 109.949,204.111 113.5,202.5 Z"/></g>
<g><path style="opacity:0.008" fill="#bbbbbb" d="M 245.5,212.5 C 246.833,212.5 247.5,213.167 247.5,214.5C 246.5,214.167 245.833,213.5 245.5,212.5 Z"/></g>
<g><path style="opacity:0.208" fill="#d9d9d9" d="M 138.5,214.5 C 137.22,215.931 135.553,216.598 133.5,216.5C 134.78,215.069 136.447,214.402 138.5,214.5 Z"/></g>
<g><path style="opacity:0.008" fill="#b9b9b9" d="M 247.5,214.5 C 251.167,216.167 253.833,218.833 255.5,222.5C 252.5,220.167 249.833,217.5 247.5,214.5 Z"/></g>
<g><path style="opacity:0.671" fill="#8f8f8f" d="M 103.5,210.5 C 99.1667,215.5 94.5,220.167 89.5,224.5C 93.1667,218.833 97.8333,214.167 103.5,210.5 Z"/></g>
<g><path style="opacity:0.718" fill="#a0a0a0" d="M 220.5,220.5 C 222.027,220.427 223.027,221.094 223.5,222.5C 221.973,222.573 220.973,221.906 220.5,220.5 Z"/></g>
<g><path style="opacity:0.055" fill="#cbcbcb" d="M 125.5,221.5 C 125.027,222.906 124.027,223.573 122.5,223.5C 122.973,222.094 123.973,221.427 125.5,221.5 Z"/></g>
<g><path style="opacity:0.467" fill="#9e9e9e" d="M 224.5,223.5 C 226.404,223.738 227.738,224.738 228.5,226.5C 226.596,226.262 225.262,225.262 224.5,223.5 Z"/></g>
<g><path style="opacity:0.086" fill="#c1c1c1" d="M 121.5,224.5 C 121.027,225.906 120.027,226.573 118.5,226.5C 118.973,225.094 119.973,224.427 121.5,224.5 Z"/></g>
<g><path style="opacity:0.522" fill="#9c9c9c" d="M 89.5,224.5 C 88.9202,226.749 87.5869,228.415 85.5,229.5C 86.0798,227.251 87.4131,225.585 89.5,224.5 Z"/></g>
<g><path style="opacity:0.557" fill="#aaaaaa" d="M 229.5,227.5 C 231.027,227.427 232.027,228.094 232.5,229.5C 230.973,229.573 229.973,228.906 229.5,227.5 Z"/></g>
<g><path style="opacity:0.475" fill="#b2b2b2" d="M 85.5,229.5 C 84.6597,231.853 83.3264,233.853 81.5,235.5C 81.8449,232.802 83.1782,230.802 85.5,229.5 Z"/></g>
<g><path style="opacity:0.125" fill="#c5c5c5" d="M 116.5,228.5 C 114.5,231.167 112.167,233.5 109.5,235.5C 110.833,232.167 113.167,229.833 116.5,228.5 Z"/></g>
<g><path style="opacity:0.024" fill="#bbbbbb" d="M 233.5,230.5 C 234.5,230.833 235.167,231.5 235.5,232.5C 234.167,232.5 233.5,231.833 233.5,230.5 Z"/></g>
<g><path style="opacity:0.314" fill="#8d8d8d" d="M 261.5,229.5 C 262.906,229.973 263.573,230.973 263.5,232.5C 262.094,232.027 261.427,231.027 261.5,229.5 Z"/></g>
<g><path style="opacity:0.322" fill="#9c9c9c" d="M 263.5,232.5 C 265.262,233.262 266.262,234.596 266.5,236.5C 264.738,235.738 263.738,234.404 263.5,232.5 Z"/></g>
<g><path style="opacity:0.471" fill="#a9a9a9" d="M 81.5,235.5 C 81.573,237.027 80.9063,238.027 79.5,238.5C 79.427,236.973 80.0937,235.973 81.5,235.5 Z"/></g>
<g><path style="opacity:0.157" fill="#c1c1c1" d="M 105.5,239.5 C 105.573,241.027 104.906,242.027 103.5,242.5C 103.427,240.973 104.094,239.973 105.5,239.5 Z"/></g>
<g><path style="opacity:0.161" fill="#c1c1c1" d="M 103.5,242.5 C 103.573,244.027 102.906,245.027 101.5,245.5C 101.427,243.973 102.094,242.973 103.5,242.5 Z"/></g>
<g><path style="opacity:0.047" fill="#cacaca" d="M 243.5,242.5 C 244.906,242.973 245.573,243.973 245.5,245.5C 244.094,245.027 243.427,244.027 243.5,242.5 Z"/></g>
<g><path style="opacity:0.404" fill="#acacac" d="M 79.5,238.5 C 78.6743,241.485 77.341,244.151 75.5,246.5C 75.7936,243.246 77.127,240.579 79.5,238.5 Z"/></g>
<g><path style="opacity:0.031" fill="#c5c5c5" d="M 101.5,245.5 C 101.573,247.027 100.906,248.027 99.5,248.5C 99.427,246.973 100.094,245.973 101.5,245.5 Z"/></g>
<g><path style="opacity:0.008" fill="#d1d1d1" d="M 245.5,245.5 C 246.906,245.973 247.573,246.973 247.5,248.5C 246.094,248.027 245.427,247.027 245.5,245.5 Z"/></g>
<g><path style="opacity:0.169" fill="#a6a6a6" d="M 270.5,244.5 C 271.906,244.973 272.573,245.973 272.5,247.5C 271.094,247.027 270.427,246.027 270.5,244.5 Z"/></g>
<g><path style="opacity:0.173" fill="#c4c4c4" d="M 75.5,246.5 C 75.3404,248.153 74.6737,249.486 73.5,250.5C 73.2291,248.62 73.8958,247.287 75.5,246.5 Z"/></g>
<g><path style="opacity:0.016" fill="#bebebe" d="M 94.5,257.5 C 93.7444,261.767 92.411,265.767 90.5,269.5C 90.8606,265.085 92.1939,261.085 94.5,257.5 Z"/></g>
<g><path style="opacity:0.449" fill="#a8a8a8" d="M 72.5,252.5 C 70.6343,259.643 68.6343,266.643 66.5,273.5C 66.9094,265.95 68.9094,258.95 72.5,252.5 Z"/></g>
<g><path style="opacity:0.031" fill="#dbdbdb" d="M 255.5,266.5 C 256.924,268.515 257.59,270.848 257.5,273.5C 256.076,271.485 255.41,269.152 255.5,266.5 Z"/></g>
<g><path style="opacity:0.316" fill="#a9a9a9" d="M 278.5,263.5 C 279.913,266.219 280.58,269.219 280.5,272.5C 279.087,269.781 278.42,266.781 278.5,263.5 Z"/></g>
<g><path style="opacity:0.29" fill="#b8b8b8" d="M 66.5,273.5 C 66.678,277.122 66.0114,280.456 64.5,283.5C 64.5488,279.922 65.2154,276.589 66.5,273.5 Z"/></g>
<g><path style="opacity:0.294" fill="#bbbbbb" d="M 88.5,278.5 C 88.3755,283.049 87.7089,287.382 86.5,291.5C 86.2796,286.9 86.9462,282.567 88.5,278.5 Z"/></g>
</svg>
