<svg xmlns="http://www.w3.org/2000/svg" width="348" height="348" viewBox="0 0 348 348" version="1.1"><path d="M 164.388 55.005 C 155.144 56.281, 150.292 57.766, 141.327 62.064 C 106.553 78.735, 89.834 118.010, 102.027 154.382 C 106.925 168.992, 114.860 180.386, 126.999 190.241 L 131.499 193.894 127.499 195.557 C 120.025 198.664, 106.527 208.242, 98.257 216.304 C 80.361 233.752, 69.575 255.253, 66.068 280.467 C 65.481 284.690, 65 289.462, 65 291.072 L 65 294 75.856 294 L 86.713 294 87.374 286.885 C 90.757 250.481, 113.767 221.922, 149 210.396 C 156.902 207.810, 158.660 207.615, 174 207.615 C 189.340 207.615, 191.098 207.810, 199 210.396 C 234.348 221.960, 257.228 250.329, 260.617 286.793 L 261.287 294 272.144 294 L 283 294 283 291.072 C 283 286.127, 280.965 273.182, 278.946 265.290 C 276.509 255.760, 269.598 241.139, 263.064 231.687 C 253.580 217.968, 233.683 201.072, 220.500 195.542 L 216.500 193.864 220.500 190.729 C 247.567 169.519, 257.183 132.968, 244.065 101.157 C 231.316 70.241, 197.192 50.475, 164.388 55.005 M 162.435 77.479 C 142.707 81.772, 126.764 97.174, 121.475 117.045 C 119.614 124.038, 119.614 136.962, 121.475 143.955 C 126.825 164.058, 142.763 179.298, 162.901 183.566 C 180.879 187.377, 198.965 182, 212.093 168.941 C 222.660 158.430, 227.976 145.562, 227.976 130.500 C 227.976 115.438, 222.660 102.570, 212.093 92.059 C 198.934 78.968, 180.483 73.551, 162.435 77.479" stroke="none" fill="#050505" fill-rule="evenodd"/><path d="M 0 174.003 L 0 348.006 174.250 347.753 L 348.500 347.500 348.753 173.750 L 349.006 0 174.503 0 L 0 0 0 174.003 M 0.489 174.500 C 0.489 270.200, 0.606 309.202, 0.750 261.171 C 0.894 213.140, 0.894 134.840, 0.750 87.171 C 0.606 39.502, 0.489 78.800, 0.489 174.500 M 164.388 55.005 C 155.144 56.281, 150.292 57.766, 141.327 62.064 C 106.553 78.735, 89.834 118.010, 102.027 154.382 C 106.925 168.992, 114.860 180.386, 126.999 190.241 L 131.499 193.894 127.499 195.557 C 120.025 198.664, 106.527 208.242, 98.257 216.304 C 80.361 233.752, 69.575 255.253, 66.068 280.467 C 65.481 284.690, 65 289.462, 65 291.072 L 65 294 75.856 294 L 86.713 294 87.374 286.885 C 90.757 250.481, 113.767 221.922, 149 210.396 C 156.902 207.810, 158.660 207.615, 174 207.615 C 189.340 207.615, 191.098 207.810, 199 210.396 C 234.348 221.960, 257.228 250.329, 260.617 286.793 L 261.287 294 272.144 294 L 283 294 283 291.072 C 283 286.127, 280.965 273.182, 278.946 265.290 C 276.509 255.760, 269.598 241.139, 263.064 231.687 C 253.580 217.968, 233.683 201.072, 220.500 195.542 L 216.500 193.864 220.500 190.729 C 247.567 169.519, 257.183 132.968, 244.065 101.157 C 231.316 70.241, 197.192 50.475, 164.388 55.005 M 162.435 77.479 C 142.707 81.772, 126.764 97.174, 121.475 117.045 C 119.614 124.038, 119.614 136.962, 121.475 143.955 C 126.825 164.058, 142.763 179.298, 162.901 183.566 C 180.879 187.377, 198.965 182, 212.093 168.941 C 222.660 158.430, 227.976 145.562, 227.976 130.500 C 227.976 115.438, 222.660 102.570, 212.093 92.059 C 198.934 78.968, 180.483 73.551, 162.435 77.479" stroke="none" fill="#f3f3f3" fill-rule="evenodd"/></svg>